<svg width="30" height="25" viewBox="0 0 30 25" fill="none" xmlns="http://www.w3.org/2000/svg">
<path d="M3.35 10.1236C3.36839 10.1136 3.38564 10.1022 3.36528 10.0797C3.04293 9.72161 2.83999 9.27901 2.53747 8.90631C2.33385 8.6555 2.11731 8.41327 1.86043 8.22376C1.60052 8.03196 1.30776 7.88386 0.976537 7.84177C0.827636 7.8228 0.679819 7.79568 0.531074 7.77524C0.504331 7.77155 0.486098 7.76515 0.475613 7.74052C0.480389 7.70641 0.496311 7.68255 0.532726 7.67752C0.540138 7.67518 0.54609 7.67078 0.550468 7.66425C0.585824 7.61134 0.650036 7.60148 0.696855 7.56583C0.704259 7.56568 0.710366 7.56283 0.715177 7.55729C0.962561 7.41632 1.22544 7.32238 1.51027 7.29303C1.5833 7.28548 1.65505 7.25927 1.72874 7.28796C1.82984 7.29684 1.8361 7.39452 1.87874 7.45527C2.03625 7.67995 2.21246 7.88893 2.40124 8.08659C2.77956 8.48252 3.18096 8.85289 3.62945 9.16796C3.7487 9.25156 3.88009 9.31791 4.00601 9.3923C3.97409 9.49703 3.94263 9.60199 3.9104 9.70663C3.85732 9.87927 3.62558 10.1302 3.35 10.1236Z" fill="#C5A377"></path>
<path d="M3.35347 10.1663C3.19289 10.1721 3.03309 10.1471 2.8884 10.0852C2.66392 9.98922 2.44512 10.0317 2.22427 10.0729C1.96855 10.1209 1.71653 10.1942 1.45895 10.227C0.944403 10.2932 0.524364 10.1229 0.234075 9.67266C0.210564 9.63615 0.183514 9.60198 0.158094 9.56678C0.0665088 9.37402 -0.0023193 9.17548 0.00112465 8.95834C0.00155398 8.93416 0.00203895 8.90987 0.00255281 8.88567C0.00967345 8.84212 -0.0109458 8.79721 0.00887197 8.75435L0.00848636 8.75543C0.00578848 8.68285 0.0144374 8.61171 0.0376617 8.54261L0.0373053 8.54378C0.0430298 8.46186 0.0650245 8.38502 0.108989 8.31531C0.103158 8.26478 0.136265 8.23182 0.161935 8.19533C0.207046 8.10879 0.229653 8.00914 0.307612 7.94168C0.35751 7.89957 0.386597 7.83798 0.4402 7.79926C0.446794 7.79701 0.452269 7.79314 0.456629 7.78767C0.465817 7.77864 0.476862 7.77477 0.489731 7.7757C0.625497 7.80484 0.762659 7.82592 0.900376 7.84281C1.34876 7.8977 1.73161 8.09434 2.06306 8.39639C2.41842 8.72009 2.71326 9.09351 2.96334 9.50501C3.08094 9.69849 3.2058 9.88863 3.35486 10.0612C3.41119 10.1264 3.40749 10.1297 3.35347 10.1663Z" fill="#D4BB9B"></path>
<path d="M8.64226 4.82908C9.70373 3.40613 12.4084 3.22847 16.7888 2.89073C24.1884 2.32019 26.1967 3.16906 28.111 5.54439C29.995 7.88198 29.5263 10.4979 28.111 12.6208C26.6958 14.7437 27.0496 20.4049 27.2265 21.8201C27.4034 23.2354 24.8959 23.1844 24.8303 22.1377C24.7225 20.4204 24.7225 21.2023 24.7225 19.4729C24.7225 17.8672 22.0961 15.2745 21.5654 12.6208C21.4193 11.8906 21.474 11.2914 21.6822 10.6748C21.6822 10.6748 19.7873 11.0636 18.5579 11.2055C16.8241 11.4056 14.0924 11.3824 14.0924 11.3824C14.6525 12.9936 15.058 14.7182 14.4889 15.0975C13.4275 15.8052 13.4275 19.8741 12.0122 21.2894C10.9686 22.333 10.361 21.0535 10.2431 20.2279C10.9507 18.8716 12.1891 15.8052 11.4815 14.3899C11.023 13.473 10.5398 11.962 10.1761 10.6748L8.64216 8.55186C6.80229 7.13658 7.58081 6.25203 8.64226 4.82908Z" fill="#D4BB9B"></path>
<path d="M2.88392 6.29782C3.11912 3.27966 5.85027 0.833604 9.16994 0.97888C12.4896 1.12416 14.4954 4.47717 14.4889 6.78136C14.4823 9.08554 10.9429 10.1661 8.84758 10.1661C6.75224 10.1661 2.64872 9.31597 2.88392 6.29782Z" fill="#C5A377"></path>
<path d="M10.2431 20.2279C10.9507 18.8716 12.2204 15.8747 11.4809 14.4044C10.7415 12.9341 10.1874 10.6803 10.1874 10.6803C10.7643 11.1179 11.514 13.6035 11.8231 14.6524C12.0236 15.3326 11.7896 17.9216 10.2431 20.2279Z" fill="#C5A377"></path>
<path d="M14.4889 15.0975C13.4275 15.8052 13.4275 19.8741 12.0122 21.2894C12.204 20.7305 12.6071 19.4951 12.6854 19.0255C12.7833 18.4383 13.1859 16.6168 13.5039 16.2132C13.7583 15.8902 14.1854 15.2163 14.4889 15.0975Z" fill="#C5A377"></path>
<path d="M14.0924 11.3824C14.6525 12.9936 15.058 14.7182 14.4889 15.0975L13.2505 9.25951C13.5034 9.82365 13.8167 10.5893 14.0924 11.3824Z" fill="#E3D3BF"></path>
<path d="M28.133 12.5806C26.0594 14.1311 26.2943 20.0377 27.1984 21.5914C27.0519 20.1046 26.73 14.6852 28.133 12.5806Z" fill="#C5A377"></path>
<path d="M21.4055 12.8873C22.0714 15.5103 24.4984 17.2416 24.7285 19.6397C25.5773 18.0836 22.9039 15.6447 22.2379 13.0218C22.0547 12.3 22.0786 11.6988 22.255 11.0723C22.5585 9.99389 23.3099 9.20238 23.7963 8.86753C23.3099 9.20238 21.726 9.85945 21.4225 10.9379C21.2461 11.5644 21.2222 12.1656 21.4055 12.8873Z" fill="#C5A377"></path>
<path d="M1.26948 5.8448C1.52764 2.53209 4.52533 -0.152701 8.16899 0.00675419C11.8127 0.166209 14.0142 3.84646 14.007 6.37553C13.9998 8.9046 10.115 10.0907 7.81517 10.0907C5.51533 10.0907 1.01133 9.15751 1.26948 5.8448Z" fill="#73381C"></path>
<path d="M28.111 5.54439C26.1967 3.16906 24.1884 2.32019 16.7888 2.89073C19.9164 3.29513 25.6502 2.89074 27.7493 5.96345C28.8497 7.57439 28.5164 11.0215 28.111 12.6208C29.5263 10.4979 29.995 7.88198 28.111 5.54439Z" fill="#E3D3BF"></path>
<path d="M14.8426 3.2602C14.8426 3.2602 14.6904 3.36325 14.4951 3.3763C14.2997 3.38934 14.1386 3.35851 14.1352 3.30744C14.1318 3.25637 14.2874 3.20439 14.4827 3.19134C14.6781 3.1783 14.8426 3.2602 14.8426 3.2602Z" fill="#C5A377"></path>
<path d="M17.8189 3.44813C17.8189 3.44813 17.6668 3.55118 17.4714 3.56422C17.2761 3.57727 17.1149 3.54644 17.1115 3.49537C17.1081 3.4443 17.2637 3.39232 17.4591 3.37927C17.6544 3.36623 17.8189 3.44813 17.8189 3.44813Z" fill="#C5A377"></path>
<path d="M19.3283 3.37636C19.3283 3.37636 19.1643 3.45941 18.9689 3.44774C18.7735 3.43607 18.6175 3.38519 18.6206 3.33409C18.6236 3.283 18.7845 3.25104 18.98 3.26271C19.1754 3.27438 19.3283 3.37636 19.3283 3.37636Z" fill="#C5A377"></path>
<path d="M19.1461 4.01258C19.1461 4.01258 18.9939 4.11563 18.7986 4.12868C18.6032 4.14172 18.4421 4.11089 18.4387 4.05982C18.4353 4.00875 18.5909 3.95677 18.7862 3.94373C18.9815 3.93068 19.1461 4.01258 19.1461 4.01258Z" fill="#C5A377"></path>
<path d="M20.4703 3.78004C20.4703 3.78004 20.3181 3.88309 20.1228 3.89613C19.9274 3.90918 19.7663 3.87835 19.7629 3.82728C19.7595 3.7762 19.9151 3.72423 20.1104 3.71118C20.3058 3.69814 20.4703 3.78004 20.4703 3.78004Z" fill="#C5A377"></path>
<path d="M22.064 3.61448C22.064 3.61448 21.82 3.70121 21.5219 3.6939C21.2238 3.68659 20.9832 3.63919 20.9844 3.58801C20.9857 3.53684 21.2284 3.50129 21.5265 3.50859C21.8246 3.5159 22.064 3.61448 22.064 3.61448Z" fill="#C5A377"></path>
<path d="M23.602 4.19844C23.602 4.19844 23.3382 4.29152 23.0453 4.23575C22.7523 4.17997 22.5266 4.07284 22.5412 3.99646C22.5557 3.92007 22.805 3.90337 23.0979 3.95914C23.3909 4.01492 23.602 4.19844 23.602 4.19844Z" fill="#C5A377"></path>
<path d="M25.4105 4.56826C25.4105 4.56826 25.136 4.62221 24.8543 4.52464C24.5725 4.42708 24.3647 4.28842 24.3901 4.21495C24.4155 4.14147 24.6646 4.161 24.9464 4.25856C25.2282 4.35613 25.4105 4.56826 25.4105 4.56826Z" fill="#C5A377"></path>
<path d="M27.2508 5.97282C27.2508 5.97282 26.9724 5.94547 26.7306 5.77091C26.4888 5.59636 26.3297 5.40375 26.3752 5.34071C26.4207 5.27767 26.6536 5.36807 26.8954 5.54262C27.1372 5.71717 27.2508 5.97282 27.2508 5.97282Z" fill="#C5A377"></path>
<path d="M27.8558 8.05191C27.8558 8.05191 27.6627 7.84949 27.5934 7.55945C27.5241 7.26941 27.5293 7.01964 27.6049 7.00158C27.6805 6.98351 27.798 7.204 27.8673 7.49404C27.9365 7.78408 27.8558 8.05191 27.8558 8.05191Z" fill="#C5A377"></path>
<path d="M27.7889 10.3936C27.7889 10.3936 27.6864 10.1333 27.7317 9.83855C27.7769 9.5438 27.8759 9.31443 27.9528 9.32623C28.0296 9.33803 28.0552 9.58653 28.01 9.88128C27.9647 10.176 27.7889 10.3936 27.7889 10.3936Z" fill="#C5A377"></path>
<path d="M26.8401 7.72367C26.8401 7.72367 26.5439 7.47402 26.4545 7.10009C26.3652 6.72617 26.3931 6.39911 26.5167 6.36957C26.6404 6.34004 26.813 6.61923 26.9023 6.99315C26.9916 7.36707 26.8401 7.72367 26.8401 7.72367Z" fill="#C5A377"></path>
<path d="M25.4937 6.2502C25.4937 6.2502 25.1104 6.19373 24.8377 5.9227C24.5651 5.65167 24.4167 5.35887 24.5063 5.26871C24.5959 5.17856 24.8896 5.32518 25.1623 5.59621C25.4349 5.86724 25.4937 6.2502 25.4937 6.2502Z" fill="#C5A377"></path>
<path d="M21.7976 4.2714C21.7976 4.2714 21.5537 4.35813 21.2556 4.35082C20.9575 4.34352 20.7168 4.29611 20.7181 4.24494C20.7193 4.19376 20.962 4.15821 21.2601 4.16552C21.5582 4.17283 21.7976 4.2714 21.7976 4.2714Z" fill="#C5A377"></path>
<path d="M24.0105 5.57282C24.0105 5.57282 23.7523 5.55433 23.4822 5.42796C23.2121 5.30159 23.0107 5.16156 23.0324 5.1152C23.0541 5.06883 23.2906 5.13369 23.5607 5.26006C23.8308 5.38643 24.0105 5.57282 24.0105 5.57282Z" fill="#C5A377"></path>
<path d="M27.1565 9.15774C27.1565 9.15774 27.0773 8.91127 27.0937 8.61352C27.1101 8.31577 27.1648 8.07668 27.2159 8.0795C27.267 8.08231 27.2952 8.32597 27.2788 8.62371C27.2624 8.92146 27.1565 9.15774 27.1565 9.15774Z" fill="#C5A377"></path>
<path d="M27.0965 10.8886C27.0965 10.8886 27.0793 10.7236 27.1289 10.5391C27.1785 10.3546 27.2444 10.212 27.276 10.2205C27.3077 10.229 27.2932 10.3855 27.2436 10.5699C27.194 10.7544 27.0965 10.8886 27.0965 10.8886Z" fill="#C5A377"></path>
<path d="M20.3429 4.67657C20.3429 4.67657 20.183 4.76719 19.9872 4.76465C19.7914 4.76211 19.6333 4.71856 19.6339 4.66738C19.6346 4.6162 19.7938 4.57676 19.9896 4.5793C20.1854 4.58184 20.3429 4.67657 20.3429 4.67657Z" fill="#C5A377"></path>
<path d="M15.5613 3.89426C15.5613 3.89426 15.4258 4.01841 15.2344 4.05981C15.0431 4.10122 14.8792 4.09423 14.8684 4.0442C14.8575 3.99417 15.0039 3.92005 15.1952 3.87864C15.3866 3.83724 15.5613 3.89426 15.5613 3.89426Z" fill="#C5A377"></path>
<path d="M17.1114 4.08143C17.1114 4.08143 16.9592 4.18448 16.7639 4.19753C16.5685 4.21057 16.4074 4.17974 16.404 4.12867C16.4006 4.0776 16.5562 4.02562 16.7515 4.01257C16.9469 3.99953 17.1114 4.08143 17.1114 4.08143Z" fill="#C5A377"></path>
<path d="M16.5588 3.23338C16.5588 3.23338 16.4229 3.35709 16.2314 3.39789C16.0399 3.43869 15.8761 3.43118 15.8654 3.38111C15.8547 3.33105 16.0013 3.25739 16.1928 3.2166C16.3843 3.1758 16.5588 3.23338 16.5588 3.23338Z" fill="#C5A377"></path>
<path d="M13.1256 10.5522C13.1256 10.5522 12.9729 10.45 12.8872 10.2739C12.8016 10.0979 12.7695 9.93699 12.8156 9.91461C12.8616 9.89223 12.9683 10.0168 13.0539 10.1929C13.1396 10.369 13.1256 10.5522 13.1256 10.5522Z" fill="#C5A377"></path>
<path d="M12.8216 11.5312C12.8216 11.5312 12.6972 11.428 12.654 11.2705C12.6109 11.113 12.6159 10.9743 12.6653 10.9608C12.7146 10.9472 12.7896 11.064 12.8328 11.2215C12.876 11.379 12.8216 11.5312 12.8216 11.5312Z" fill="#C5A377"></path>
<path d="M13.5276 11.9379C13.5276 11.9379 13.4347 11.8261 13.3915 11.6686C13.3484 11.5111 13.3393 11.3763 13.3713 11.3675C13.4033 11.3587 13.4642 11.4793 13.5074 11.6368C13.5505 11.7944 13.5276 11.9379 13.5276 11.9379Z" fill="#C5A377"></path>
<path d="M13.455 12.8954C13.455 12.8954 13.3585 12.8158 13.3082 12.6901C13.2579 12.5644 13.2421 12.4525 13.2729 12.4402C13.3037 12.4278 13.3694 12.5197 13.4197 12.6454C13.47 12.7711 13.455 12.8954 13.455 12.8954Z" fill="#C5A377"></path>
<path d="M13.9344 13.2482C13.9344 13.2482 13.867 13.1927 13.8319 13.105C13.7968 13.0173 13.7858 12.9392 13.8073 12.9306C13.8288 12.922 13.8746 12.9861 13.9097 13.0739C13.9448 13.1616 13.9344 13.2482 13.9344 13.2482Z" fill="#C5A377"></path>
<path d="M1.26948 5.8448C1.52764 2.53209 4.52533 -0.152701 8.16899 0.00675419C11.8127 0.166209 14.0142 3.84646 14.007 6.37553C13.9998 8.9046 10.115 10.0907 7.81517 10.0907C5.51533 10.0907 1.01133 9.15751 1.26948 5.8448Z" fill="#D4BB9B"></path>
<path d="M8.16899 0.00675419C11.8127 0.166209 14.0142 3.84646 14.007 6.37553C13.5103 4.63178 11.6473 0.916767 8.16899 0.00675419Z" fill="#E3D3BF"></path>
<path d="M3.26117 3.5972C5.75869 1.43413 6.61591 2.11491 7.50702 3.5972C9.0992 1.65118 10.8748 1.71819 12.6374 3.95102C14.4001 6.18385 9.98386 9.36824 7.50711 9.36824C5.03037 9.36824 0.0703053 6.36076 3.26117 3.5972Z" fill="#F3ECE3"></path>
<path d="M11.0336 3.70679C12.1413 3.96796 12.7185 4.2359 12.8686 4.33722C13.4077 5.30898 12.6795 6.59402 12.0243 7.14038C11.694 6.79514 10.8692 6.09792 10.2118 6.0709C9.38999 6.03713 8.38805 6.66756 7.93774 5.89078C7.48744 5.114 8.02781 4.51734 8.48937 4.20212C8.95094 3.88691 9.64891 3.38032 11.0336 3.70679Z" fill="#73381C"></path>
<path d="M11.0336 3.70679C12.1413 3.96796 12.7185 4.2359 12.8686 4.33722C12.8686 4.33722 11.6233 3.91973 10.2196 3.91973C9.24707 3.91973 8.48937 4.20212 8.48937 4.20212C8.95094 3.88691 9.64891 3.38032 11.0336 3.70679Z" fill="#4A2412"></path>
<path d="M4.16844 3.91608C3.0607 4.17725 2.65396 4.37732 2.50385 4.47864C1.80087 5.71675 2.50018 6.86562 3.15546 7.41198C3.48568 7.06674 4.3328 6.30721 4.99024 6.28019C5.81205 6.24642 6.81398 6.87685 7.26429 6.10007C7.7146 5.32329 7.17422 4.72663 6.71266 4.41141C6.2511 4.0962 5.55312 3.58961 4.16844 3.91608Z" fill="#73381C"></path>
<path d="M7.68565 6.59088C7.82844 6.59469 7.99292 6.63086 8.1251 6.7245C8.27888 6.8334 8.29784 6.98445 8.17326 7.1114C8.13975 7.14559 8.0976 7.17569 8.05648 7.20559C7.71916 7.45089 7.43789 7.4182 7.08931 7.12577C6.92033 6.98397 7.00736 6.76563 7.24065 6.66845C7.33453 6.62929 7.53609 6.59088 7.68565 6.59088Z" fill="#4A2412"></path>
<path d="M7.71653 8.11475C7.31155 8.11468 7.02908 8.01668 6.81443 7.82755C6.78217 7.79909 6.75604 7.76708 6.73152 7.73521C6.70399 7.69918 6.6859 7.65832 6.73625 7.62658C6.79001 7.59273 6.84598 7.61711 6.89221 7.63979C6.96778 7.67684 7.03892 7.71825 7.11228 7.75741C7.49726 7.96322 7.94866 7.94422 8.28862 7.70824C8.33836 7.67364 8.3889 7.63959 8.44046 7.60629C8.45935 7.5941 8.48216 7.57898 8.5105 7.58728C8.54155 7.59641 8.55461 7.61705 8.5512 7.63959C8.53452 7.74583 8.50316 7.84696 8.37976 7.92549C8.18049 8.05236 7.94826 8.11597 7.71653 8.11475Z" fill="#4A2412"></path>
<path d="M5.50286 5.73599C5.39284 5.74139 5.2797 5.70238 5.17162 5.65773C5.03208 5.60005 4.89948 5.53034 4.78386 5.4382C4.71714 5.38496 4.73918 5.35615 4.81117 5.32932C4.88952 5.30012 4.9597 5.33342 5.03118 5.34691C5.10453 5.36088 5.17668 5.38363 5.24611 5.4093C5.52561 5.5126 5.76863 5.43607 5.99671 5.2933C6.08009 5.2411 6.15668 5.18024 6.23488 5.12189C6.26427 5.09998 6.2922 5.07166 6.33341 5.09119C6.37803 5.11236 6.35449 5.1503 6.35037 5.18127C6.32944 5.33785 6.23376 5.45805 6.09557 5.54966C5.92583 5.66216 5.73727 5.73891 5.50286 5.73599Z" fill="#4A2412"></path>
<path d="M9.53818 5.73454C9.22518 5.73563 8.99665 5.61802 8.81586 5.40424C8.80227 5.38817 8.7907 5.36991 8.78143 5.35112C8.76888 5.32599 8.76198 5.29629 8.78213 5.2743C8.80506 5.24923 8.83259 5.26871 8.85886 5.27668C8.98675 5.31557 9.09171 5.3992 9.21605 5.44653C9.49852 5.55407 9.75389 5.49373 9.9965 5.33974C10.0688 5.29384 10.1373 5.24236 10.2065 5.1921C10.2279 5.17657 10.248 5.1639 10.2729 5.18174C10.3005 5.20156 10.2821 5.22512 10.276 5.24733C10.2128 5.48072 10.0417 5.60821 9.82052 5.68224C9.72176 5.71534 9.62042 5.7451 9.53818 5.73454Z" fill="#4A2412"></path>
<path d="M4.24137 3.88651C3.13362 4.14769 2.64393 4.38247 2.49381 4.48379C2.49381 4.48379 3.69489 4.0779 5.09752 4.13255C6.05801 4.16997 6.75954 4.4424 6.75954 4.4424C6.29798 4.12719 5.62605 3.56004 4.24137 3.88651Z" fill="#4A2412"></path>
<path d="M8.78513 1.02221C8.78513 1.02221 8.70512 1.18767 8.54263 1.29689C8.38015 1.40611 8.22528 1.46022 8.19673 1.41774C8.16817 1.37526 8.27674 1.25228 8.43922 1.14305C8.6017 1.03383 8.78513 1.02221 8.78513 1.02221Z" fill="#C5A377"></path>
<path d="M8.39854 0.606722C8.39854 0.606722 8.37878 0.830524 8.24039 1.02578C8.10199 1.22104 7.94842 1.34999 7.89737 1.31381C7.84632 1.27762 7.91713 1.09 8.05552 0.894748C8.19392 0.699492 8.39854 0.606722 8.39854 0.606722Z" fill="#C5A377"></path>
<path d="M6.408 1.07171C6.408 1.07171 6.59178 1.07385 6.75969 1.17453C6.9276 1.27521 7.04237 1.39242 7.01605 1.43632C6.98973 1.48022 6.83227 1.43419 6.66436 1.3335C6.49646 1.23282 6.408 1.07171 6.408 1.07171Z" fill="#C5A377"></path>
<path d="M6.86316 0.616138C6.86316 0.616138 7.04293 0.717767 7.15369 0.907818C7.26446 1.09787 7.31398 1.27541 7.26429 1.30437C7.2146 1.33333 7.08452 1.20274 6.97375 1.01269C6.86299 0.822642 6.86316 0.616138 6.86316 0.616138Z" fill="#C5A377"></path>
<path d="M7.5464 0.320583C7.5464 0.320583 7.70013 0.575154 7.70479 0.891905C7.70945 1.20866 7.6461 1.46642 7.56328 1.46764C7.48047 1.46886 7.40955 1.21307 7.40489 0.896319C7.40023 0.579568 7.5464 0.320583 7.5464 0.320583Z" fill="#C5A377"></path>
<path d="M12.3741 20.7866C12.0538 20.6187 11.9804 20.6359 11.6656 20.5081C11.3508 20.3803 10.9292 22.7986 11.0421 22.9663C11.155 23.134 12.6944 20.9546 12.3741 20.7866Z" fill="#4A2412"></path>
<path d="M12.3757 20.773C12.2289 20.6774 11.9349 20.5983 11.6243 20.4604C11.3138 20.3226 10.904 22.874 11.032 22.9753C11.1601 23.0766 12.5225 20.8686 12.3757 20.773Z" fill="#73381C"></path>
<path d="M11.3702 20.4469C11.2278 20.3448 10.8304 20.165 10.4498 20.1478C10.0691 20.1306 9.79461 22.5285 10.0072 22.6075C10.2198 22.6864 11.5126 20.5489 11.3702 20.4469Z" fill="#4A2412"></path>
<path d="M11.1131 20.3122C10.9707 20.2102 10.7602 20.1199 10.3795 20.1027C9.99886 20.0855 9.7626 22.5447 9.97516 22.6237C10.1877 22.7027 11.2554 20.4143 11.1131 20.3122Z" fill="#73381C"></path>
<path d="M11.6684 20.5149C11.5216 20.4193 11.0834 20.2399 10.8373 20.2399C10.5913 20.24 10.4455 22.9081 10.6748 22.9233C10.8245 22.9332 11.8152 20.6105 11.6684 20.5149Z" fill="#4A2412"></path>
<path d="M11.6106 20.4692C11.4638 20.3736 11.0255 20.1942 10.7795 20.1943C10.5335 20.1944 10.4312 22.9135 10.6606 22.9287C10.8103 22.9386 11.7574 20.5648 11.6106 20.4692Z" fill="#73381C"></path>
<path d="M27.1542 21.218C26.7561 21.2182 26.6934 21.2725 26.3212 21.309C25.9491 21.3455 26.7753 23.9178 26.9712 24.0236C27.167 24.1293 27.5523 21.2178 27.1542 21.218Z" fill="#4A2412"></path>
<path d="M27.1485 21.2039C26.9566 21.1858 26.6295 21.2591 26.2564 21.2836C25.8833 21.3082 26.7891 24.0043 26.9657 24.0375C27.1423 24.0707 27.3405 21.222 27.1485 21.2039Z" fill="#73381C"></path>
<path d="M26.0019 21.4004C25.811 21.3738 25.3317 21.4019 24.952 21.5799C24.5722 21.7578 25.5314 24.235 25.7789 24.2032C26.0265 24.1714 26.1929 21.427 26.0019 21.4004Z" fill="#4A2412"></path>
<path d="M25.6825 21.4008C25.4916 21.3742 25.2402 21.3939 24.8605 21.5718C24.4807 21.7498 25.5085 24.2673 25.7561 24.2355C26.0037 24.2037 25.8735 21.4274 25.6825 21.4008Z" fill="#73381C"></path>
<path d="M26.3272 21.3142C26.1353 21.2961 25.4461 21.3346 25.2064 21.4605C24.9667 21.5864 26.2155 24.336 26.5911 24.1695C26.742 24.1026 26.5191 21.3322 26.3272 21.3142Z" fill="#4A2412"></path>
<path d="M26.2475 21.2993C26.0556 21.2812 25.4906 21.3104 25.2508 21.4363C25.0111 21.5622 26.3035 24.2745 26.5348 24.172C26.6857 24.1051 26.4395 21.3174 26.2475 21.2993Z" fill="#73381C"></path>
</svg>